# This file uses centimeters as units for non-parametric coordinates.

mtllib windows.mtl
g default
v 3.536694 -8.681702 59.743237
v 5.507054 -8.685587 53.314915
v 3.539200 5.697890 59.741161
v 5.509559 5.694005 53.312840
v 3.431587 5.697884 59.706844
v 5.401948 5.694001 53.278522
v 3.429051 -8.681708 59.708912
v 5.399442 -8.685591 53.280613
v -22.093332 -8.369733 113.567902
v -10.333456 -8.373618 113.500214
v -22.088539 6.009858 113.570496
v -10.328665 6.005973 113.502808
v -22.087675 6.009852 113.406174
v -10.327770 6.005969 113.338501
v -22.092468 -8.369739 113.403580
v -10.332565 -8.373622 113.335907
v 36.276119 -2.412536 125.396576
v 25.144560 -2.412536 125.404373
v 36.276119 6.745381 125.396576
v 25.144560 6.745381 125.404373
v 36.276234 6.745381 125.560883
v 25.144672 6.745381 125.568665
v 36.276234 -2.412536 125.560883
v 25.144672 -2.412536 125.568665
v 43.152954 -0.341165 84.365417
v 43.087818 -0.341163 89.802780
v 43.155369 6.658465 84.365448
v 43.090229 6.658467 89.802795
v 43.319675 6.658437 84.366623
v 43.254532 6.658438 89.803970
v 43.317230 -0.341195 84.366623
v 43.252094 -0.341193 89.803955
v 25.878845 -2.412516 59.438793
v 37.010365 -2.412513 59.465420
v 25.878843 6.745400 59.436451
v 37.010365 6.745402 59.463078
v 25.879219 6.745358 59.272160
v 37.010769 6.745360 59.298786
v 25.879219 -2.412558 59.274494
v 37.010769 -2.412555 59.301121
v -24.104130 -2.412516 49.655186
v -12.972578 -2.412513 49.681812
v -24.104099 6.745400 49.652851
v -12.972579 6.745402 49.679470
v -24.103727 6.745358 49.488552
v -12.972176 6.745360 49.515186
v -24.103725 -2.412558 49.490894
v -12.972175 -2.412555 49.517513
v -32.935665 -2.412536 91.824478
v -32.930687 -2.412536 80.692902
v -32.935665 6.745381 91.824478
v -32.930687 6.745381 80.692902
v -33.099972 6.745381 91.824402
v -33.094963 6.745381 80.692841
v -33.099972 -2.412536 91.824402
v -33.094963 -2.412536 80.692841
vt 0.375000 0.000000
vt 0.625000 0.000000
vt 0.625000 0.250000
vt 0.375000 0.250000
vt 0.625000 0.500000
vt 0.375000 0.500000
vt 0.625000 0.750000
vt 0.375000 0.750000
vt 0.625000 1.000000
vt 0.375000 1.000000
vt 0.875000 0.000000
vt 0.875000 0.250000
vt 0.125000 0.000000
vt 0.125000 0.250000
vt 0.375000 0.000000
vt 0.625000 0.000000
vt 0.625000 0.250000
vt 0.375000 0.250000
vt 0.625000 0.500000
vt 0.375000 0.500000
vt 0.625000 0.750000
vt 0.375000 0.750000
vt 0.625000 1.000000
vt 0.375000 1.000000
vt 0.875000 0.000000
vt 0.875000 0.250000
vt 0.125000 0.000000
vt 0.125000 0.250000
vt 0.375000 0.000000
vt 0.625000 0.000000
vt 0.625000 0.250000
vt 0.375000 0.250000
vt 0.625000 0.500000
vt 0.375000 0.500000
vt 0.625000 0.750000
vt 0.375000 0.750000
vt 0.625000 1.000000
vt 0.375000 1.000000
vt 0.875000 0.000000
vt 0.875000 0.250000
vt 0.125000 0.000000
vt 0.125000 0.250000
vt 0.375000 0.000000
vt 0.625000 0.000000
vt 0.625000 0.250000
vt 0.375000 0.250000
vt 0.625000 0.500000
vt 0.375000 0.500000
vt 0.625000 0.750000
vt 0.375000 0.750000
vt 0.625000 1.000000
vt 0.375000 1.000000
vt 0.875000 0.000000
vt 0.875000 0.250000
vt 0.125000 0.000000
vt 0.125000 0.250000
vt 0.375000 0.000000
vt 0.625000 0.000000
vt 0.625000 0.250000
vt 0.375000 0.250000
vt 0.625000 0.500000
vt 0.375000 0.500000
vt 0.625000 0.750000
vt 0.375000 0.750000
vt 0.625000 1.000000
vt 0.375000 1.000000
vt 0.875000 0.000000
vt 0.875000 0.250000
vt 0.125000 0.000000
vt 0.125000 0.250000
vt 0.375000 0.000000
vt 0.625000 0.000000
vt 0.625000 0.250000
vt 0.375000 0.250000
vt 0.625000 0.500000
vt 0.375000 0.500000
vt 0.625000 0.750000
vt 0.375000 0.750000
vt 0.625000 1.000000
vt 0.375000 1.000000
vt 0.875000 0.000000
vt 0.875000 0.250000
vt 0.125000 0.000000
vt 0.125000 0.250000
vt 0.375000 0.000000
vt 0.625000 0.000000
vt 0.625000 0.250000
vt 0.375000 0.250000
vt 0.625000 0.500000
vt 0.375000 0.500000
vt 0.625000 0.750000
vt 0.375000 0.750000
vt 0.625000 1.000000
vt 0.375000 1.000000
vt 0.875000 0.000000
vt 0.875000 0.250000
vt 0.125000 0.000000
vt 0.125000 0.250000
vn 0.956095 -0.000125 0.293056
vn 0.956095 -0.000125 0.293056
vn 0.956095 -0.000125 0.293056
vn 0.956095 -0.000125 0.293056
vn 0.000144 1.000000 -0.000560
vn 0.000144 1.000000 -0.000560
vn 0.000144 1.000000 -0.000560
vn 0.000144 1.000000 -0.000560
vn -0.956095 0.000125 -0.293056
vn -0.956095 0.000125 -0.293056
vn -0.956095 0.000125 -0.293056
vn -0.956095 0.000125 -0.293056
vn -0.000134 -1.000000 0.000564
vn -0.000134 -1.000000 0.000564
vn -0.000134 -1.000000 0.000564
vn -0.000134 -1.000000 0.000564
vn 0.303675 -0.000191 -0.952776
vn 0.303675 -0.000191 -0.952776
vn 0.303675 -0.000191 -0.952776
vn 0.303675 -0.000191 -0.952776
vn -0.303675 0.000191 0.952776
vn -0.303675 0.000191 0.952776
vn -0.303675 0.000191 0.952776
vn -0.303675 0.000191 0.952776
vn 0.005755 -0.000182 0.999983
vn 0.005755 -0.000182 0.999983
vn 0.005755 -0.000182 0.999983
vn 0.005755 -0.000182 0.999983
vn 0.000330 1.000000 -0.000022
vn 0.000330 1.000000 -0.000022
vn 0.000330 1.000000 -0.000022
vn 0.000330 1.000000 -0.000022
vn -0.005755 0.000182 -0.999983
vn -0.005755 0.000182 -0.999983
vn -0.005755 0.000182 -0.999983
vn -0.005755 0.000182 -0.999983
vn -0.000330 -1.000000 0.000028
vn -0.000330 -1.000000 0.000028
vn -0.000330 -1.000000 0.000028
vn -0.000330 -1.000000 0.000028
vn 0.999985 -0.000334 0.005384
vn 0.999985 -0.000334 0.005384
vn 0.999985 -0.000334 0.005384
vn 0.999985 -0.000334 0.005384
vn -0.999986 0.000334 -0.005383
vn -0.999986 0.000334 -0.005383
vn -0.999986 0.000334 -0.005383
vn -0.999986 0.000334 -0.005383
vn -0.000698 0.000000 -1.000000
vn -0.000698 0.000000 -1.000000
vn -0.000698 0.000000 -1.000000
vn -0.000698 0.000000 -1.000000
vn 0.000000 1.000000 0.000000
vn 0.000000 1.000000 0.000000
vn 0.000000 1.000000 0.000000
vn 0.000000 1.000000 0.000000
vn 0.000698 0.000000 1.000000
vn 0.000698 0.000000 1.000000
vn 0.000698 0.000000 1.000000
vn 0.000698 0.000000 1.000000
vn 0.000000 -1.000000 0.000000
vn 0.000000 -1.000000 0.000000
vn 0.000000 -1.000000 0.000000
vn 0.000000 -1.000000 0.000000
vn -1.000000 0.000000 0.000698
vn -1.000000 0.000000 0.000698
vn -1.000000 0.000000 0.000698
vn -1.000000 0.000000 0.000698
vn 1.000000 0.000000 -0.000698
vn 1.000000 0.000000 -0.000698
vn 1.000000 0.000000 -0.000698
vn 1.000000 0.000000 -0.000698
vn -0.999928 0.000349 -0.011979
vn -0.999928 0.000349 -0.011979
vn -0.999928 0.000349 -0.011979
vn -0.999928 0.000349 -0.011979
vn 0.000174 1.000000 0.000002
vn 0.000174 1.000000 0.000002
vn 0.000174 1.000000 0.000002
vn 0.000174 1.000000 0.000002
vn 0.999928 -0.000347 0.011979
vn 0.999928 -0.000347 0.011979
vn 0.999928 -0.000347 0.011979
vn 0.999928 -0.000347 0.011979
vn -0.000186 -1.000000 -0.000001
vn -0.000186 -1.000000 -0.000001
vn -0.000186 -1.000000 -0.000001
vn -0.000186 -1.000000 -0.000001
vn -0.007156 0.000000 0.999974
vn -0.007156 0.000000 0.999974
vn -0.007156 0.000000 0.999974
vn -0.007156 0.000000 0.999974
vn 0.007156 0.000000 -0.999974
vn 0.007156 0.000000 -0.999974
vn 0.007156 0.000000 -0.999974
vn 0.007156 0.000000 -0.999974
vn -0.002392 0.000256 0.999997
vn -0.002392 0.000256 0.999997
vn -0.002392 0.000256 0.999997
vn -0.002392 0.000256 0.999997
vn 0.000001 1.000000 -0.000254
vn 0.000001 1.000000 -0.000254
vn 0.000001 1.000000 -0.000254
vn 0.000001 1.000000 -0.000254
vn 0.002392 -0.000256 -0.999997
vn 0.002392 -0.000256 -0.999997
vn 0.002392 -0.000256 -0.999997
vn 0.002392 -0.000256 -0.999997
vn -0.000001 -1.000000 0.000254
vn -0.000001 -1.000000 0.000254
vn -0.000001 -1.000000 0.000254
vn -0.000001 -1.000000 0.000254
vn 0.999997 -0.000001 0.002412
vn 0.999997 -0.000001 0.002412
vn 0.999997 -0.000001 0.002412
vn 0.999997 -0.000001 0.002412
vn -0.999997 -0.000001 -0.002389
vn -0.999997 -0.000001 -0.002389
vn -0.999997 -0.000001 -0.002389
vn -0.999997 -0.000001 -0.002389
vn -0.002392 0.000256 0.999997
vn -0.002392 0.000256 0.999997
vn -0.002392 0.000256 0.999997
vn -0.002392 0.000256 0.999997
vn 0.000001 1.000000 -0.000253
vn 0.000001 1.000000 -0.000253
vn 0.000001 1.000000 -0.000253
vn 0.000001 1.000000 -0.000253
vn 0.002392 -0.000256 -0.999997
vn 0.002392 -0.000256 -0.999997
vn 0.002392 -0.000256 -0.999997
vn 0.002392 -0.000256 -0.999997
vn 0.000000 -1.000000 0.000259
vn 0.000000 -1.000000 0.000259
vn 0.000000 -1.000000 0.000259
vn 0.000000 -1.000000 0.000259
vn 0.999997 0.000000 0.002395
vn 0.999997 0.000000 0.002395
vn 0.999997 0.000000 0.002395
vn 0.999997 0.000000 0.002395
vn -0.999997 0.000000 -0.002395
vn -0.999997 0.000000 -0.002395
vn -0.999997 0.000000 -0.002395
vn -0.999997 0.000000 -0.002395
vn 1.000000 0.000000 0.000447
vn 1.000000 0.000000 0.000447
vn 1.000000 0.000000 0.000447
vn 1.000000 0.000000 0.000447
vn 0.000000 1.000000 0.000000
vn 0.000000 1.000000 0.000000
vn 0.000000 1.000000 0.000000
vn 0.000000 1.000000 0.000000
vn -1.000000 0.000000 -0.000447
vn -1.000000 0.000000 -0.000447
vn -1.000000 0.000000 -0.000447
vn -1.000000 0.000000 -0.000447
vn 0.000000 -1.000000 0.000000
vn 0.000000 -1.000000 0.000000
vn 0.000000 -1.000000 0.000000
vn 0.000000 -1.000000 0.000000
vn 0.000457 0.000000 -1.000000
vn 0.000457 0.000000 -1.000000
vn 0.000457 0.000000 -1.000000
vn 0.000457 0.000000 -1.000000
vn -0.000457 0.000000 1.000000
vn -0.000457 0.000000 1.000000
vn -0.000457 0.000000 1.000000
vn -0.000457 0.000000 1.000000
s off
g pasted__polySurface2679group
usemtl lambert3SG
f 1/1/1 2/2/2 4/3/3 3/4/4
f 3/4/5 4/3/6 6/5/7 5/6/8
f 5/6/9 6/5/10 8/7/11 7/8/12
f 7/8/13 8/7/14 2/9/15 1/10/16
f 2/2/17 8/11/18 6/12/19 4/3/20
f 7/13/21 1/1/22 3/4/23 5/14/24
f 9/15/25 10/16/26 12/17/27 11/18/28
f 11/18/29 12/17/30 14/19/31 13/20/32
f 13/20/33 14/19/34 16/21/35 15/22/36
f 15/22/37 16/21/38 10/23/39 9/24/40
f 10/16/41 16/25/42 14/26/43 12/17/44
f 15/27/45 9/15/46 11/18/47 13/28/48
f 17/29/49 18/30/50 20/31/51 19/32/52
f 19/32/53 20/31/54 22/33/55 21/34/56
f 21/34/57 22/33/58 24/35/59 23/36/60
f 23/36/61 24/35/62 18/37/63 17/38/64
f 18/30/65 24/39/66 22/40/67 20/31/68
f 23/41/69 17/29/70 19/32/71 21/42/72
f 25/43/73 26/44/74 28/45/75 27/46/76
f 27/46/77 28/45/78 30/47/79 29/48/80
f 29/48/81 30/47/82 32/49/83 31/50/84
f 31/50/85 32/49/86 26/51/87 25/52/88
f 26/44/89 32/53/90 30/54/91 28/45/92
f 31/55/93 25/43/94 27/46/95 29/56/96
f 33/57/97 34/58/98 36/59/99 35/60/100
f 35/60/101 36/59/102 38/61/103 37/62/104
f 37/62/105 38/61/106 40/63/107 39/64/108
f 39/64/109 40/63/110 34/65/111 33/66/112
f 34/58/113 40/67/114 38/68/115 36/59/116
f 39/69/117 33/57/118 35/60/119 37/70/120
f 41/71/121 42/72/122 44/73/123 43/74/124
f 43/74/125 44/73/126 46/75/127 45/76/128
f 45/76/129 46/75/130 48/77/131 47/78/132
f 47/78/133 48/77/134 42/79/135 41/80/136
f 42/72/137 48/81/138 46/82/139 44/73/140
f 47/83/141 41/71/142 43/74/143 45/84/144
f 49/85/145 50/86/146 52/87/147 51/88/148
f 51/88/149 52/87/150 54/89/151 53/90/152
f 53/90/153 54/89/154 56/91/155 55/92/156
f 55/92/157 56/91/158 50/93/159 49/94/160
f 50/86/161 56/95/162 54/96/163 52/87/164
f 55/97/165 49/85/166 51/88/167 53/98/168
