# 3ds Max Wavefront OBJ Exporter v0.99 - (c)2007 guruware
# File Created: 19.11.2021 13:22:08

mtllib BarraIzqCorta.mtl

#
# object BarraIzqCorta
#

v  -107.9443 -8.8157 114.5477
v  -107.9564 -8.8320 114.5512
v  -107.9692 -8.7949 114.5527
v  -107.6330 -8.7624 114.4584
v  -107.6552 -8.7517 114.4649
v  -107.6592 -8.7263 114.4638
v  -107.9677 -8.7538 114.5547
v  -107.9512 -8.7638 114.5499
v  -107.6626 -8.6999 114.4672
v  -107.6446 -8.6804 114.4621
v  -107.6046 -8.6716 114.4506
v  -107.5848 -8.7099 114.4448
v  -107.9756 -8.7536 114.5570
v  -107.9529 -8.8320 114.5708
v  -107.9586 -8.8351 114.5724
v  -107.9621 -8.8351 114.5528
v  -107.9649 -8.7949 114.5763
v  -107.9408 -8.8157 114.5672
v  -107.6517 -8.7517 114.4844
v  -107.6295 -8.7624 114.4781
v  -107.5925 -8.7534 114.4468
v  -107.5890 -8.7534 114.4664
v  -107.6412 -8.6804 114.4809
v  -107.6013 -8.6716 114.4695
v  -107.6592 -8.6999 114.4862
v  -107.6550 -8.7263 114.4874
v  -107.9478 -8.7638 114.5689
v  -107.9643 -8.7538 114.5736
v  -107.5813 -8.7099 114.4640
v  -107.9722 -8.7536 114.5759
# 30 vertices

vn -0.1633 -0.0689 -0.9855
vn -0.1451 -0.0351 -0.9921
vn -0.1759 0.0039 -0.9844
vn -0.1616 -0.0172 -0.9883
vn -0.1658 -0.0701 -0.9847
vn -0.1751 0.0037 -0.9847
vn -0.1632 0.0500 -0.9867
vn -0.1874 0.0732 -0.9783
vn -0.1900 0.0735 -0.9775
vn -0.1693 0.0281 -0.9859
vn -0.1678 0.0271 -0.9864
vn -0.1643 0.0058 -0.9877
vn -0.1749 0.0504 -0.9834
vn 0.6344 -0.7513 -0.1819
vn 0.6345 -0.7512 -0.1819
vn 0.3938 -0.9122 -0.1129
vn 0.1762 0.0054 0.9843
vn 0.1930 -0.0392 0.9786
vn 0.2057 -0.0336 0.9748
vn 0.7059 -0.6788 -0.2024
vn 0.1676 -0.9847 -0.0481
vn -0.3444 -0.9336 0.0988
vn 0.1678 -0.9846 -0.0481
vn -0.1675 0.9847 0.0480
vn 0.1827 0.0295 0.9820
vn 0.1611 0.0751 0.9857
vn 0.1771 0.0051 0.9841
vn -0.1676 0.9847 0.0481
vn 0.3042 0.9486 -0.0872
vn 0.4178 0.9006 -0.1198
vn 0.1637 0.0748 0.9850
vn 0.1885 0.0511 0.9794
vn -0.6315 0.7539 0.1811
vn 0.1879 0.0070 0.9809
vn 0.1843 0.0285 0.9816
vn 0.8070 0.5433 -0.2314
vn -0.1606 -0.0158 -0.9886
vn 0.1881 -0.0677 0.9785
vn 0.1856 -0.0689 0.9792
vn 0.1905 -0.0162 0.9800
vn 0.1915 -0.0147 0.9797
vn 0.9387 -0.2153 -0.2692
vn 0.1756 0.0515 0.9832
vn 0.0204 0.9998 -0.0058
vn -0.1550 -0.0394 -0.9894
# 45 vertex normals

vt 0.5109 0.8937 0.0000
vt 0.5136 0.8901 0.0000
vt 0.5057 0.8884 0.0000
vt 0.5139 0.9728 0.0000
vt 0.5108 0.9676 0.0000
vt 0.5056 0.9676 0.0000
vt 0.4976 0.8901 0.0000
vt 0.5002 0.8938 0.0000
vt 0.5002 0.9676 0.0000
vt 0.4971 0.9727 0.0000
vt 0.4971 0.9830 0.0000
vt 0.5056 0.9865 0.0000
vt 0.4972 0.8881 0.0000
vt 0.1570 0.7179 0.0000
vt 0.1535 0.7179 0.0000
vt 0.1535 0.7195 0.0000
vt 0.1570 0.7195 0.0000
vt 0.4852 0.8884 0.0000
vt 0.4769 0.8886 0.0000
vt 0.4773 0.8901 0.0000
vt 0.1536 0.7134 0.0000
vt 0.1570 0.7134 0.0000
vt 0.1536 0.6395 0.0000
vt 0.1570 0.6395 0.0000
vt 0.1535 0.6335 0.0000
vt 0.1570 0.6335 0.0000
vt 0.1570 0.6232 0.0000
vt 0.1535 0.6232 0.0000
vt 0.1620 0.7006 0.0000
vt 0.1586 0.7006 0.0000
vt 0.1586 0.7108 0.0000
vt 0.1620 0.7108 0.0000
vt 0.4937 0.9727 0.0000
vt 0.4907 0.9676 0.0000
vt 0.4852 0.9676 0.0000
vt 0.1620 0.6208 0.0000
vt 0.1586 0.6208 0.0000
vt 0.1586 0.6946 0.0000
vt 0.1620 0.6946 0.0000
vt 0.1586 0.6162 0.0000
vt 0.1620 0.6162 0.0000
vt 0.4906 0.8938 0.0000
vt 0.4933 0.8901 0.0000
vt 0.4853 0.9865 0.0000
vt 0.4937 0.9830 0.0000
vt 0.1586 0.7200 0.0000
vt 0.1620 0.7200 0.0000
vt 0.5139 0.9831 0.0000
vt 0.4800 0.8937 0.0000
vt 0.4800 0.9676 0.0000
vt 0.4770 0.9728 0.0000
vt 0.4770 0.9831 0.0000
vt 0.1536 0.6142 0.0000
vt 0.1570 0.6142 0.0000
vt 0.4937 0.8881 0.0000
vt 0.1620 0.6142 0.0000
vt 0.1586 0.6142 0.0000
vt 0.5140 0.8886 0.0000
# 58 texture coords

o BarraIzqCorta
g BarraIzqCorta
usemtl Tren_01___Default
s off
f 1/1/1 2/2/2 3/3/3 
f 4/4/4 5/5/5 6/6/6 
f 3/3/3 7/7/7 8/8/8 
f 6/6/6 9/9/9 10/10/10 
f 6/6/6 10/10/10 11/11/11 
f 11/11/11 12/12/12 6/6/6 
f 3/3/3 8/8/8 9/9/9 
f 9/9/9 6/6/6 3/3/3 
f 3/3/3 13/13/13 7/7/7 
f 2/14/14 14/15/15 15/16/16 
f 15/16/16 16/17/16 2/14/14 
f 17/18/17 15/19/18 14/20/19 
f 18/21/20 14/15/15 2/14/14 
f 2/14/14 1/22/20 18/21/20 
f 19/23/21 18/21/21 1/22/21 
f 1/22/21 5/24/21 19/23/21 
f 20/25/22 19/23/22 5/24/22 
f 5/24/22 4/26/22 20/25/22 
f 21/27/23 22/28/23 20/25/23 
f 20/25/23 4/26/23 21/27/23 
f 10/29/24 23/30/24 24/31/24 
f 24/31/24 11/32/24 10/29/24 
f 23/33/25 25/34/26 26/35/27 
f 8/36/28 27/37/28 25/38/28 
f 25/38/28 9/39/28 8/36/28 
f 28/40/29 27/37/30 8/36/30 
f 8/36/30 7/41/29 28/40/29 
f 27/42/31 28/43/32 17/18/17 
f 9/39/33 25/38/33 23/30/33 
f 23/30/33 10/29/33 9/39/33 
f 25/34/26 27/42/31 17/18/17 
f 17/18/17 26/35/27 25/34/26 
f 29/44/34 24/45/35 23/33/25 
f 23/33/25 26/35/27 29/44/34 
f 24/31/36 29/46/36 12/47/36 
f 12/47/36 11/32/36 24/31/36 
f 1/1/1 3/3/3 6/6/6 
f 6/6/6 5/5/5 1/1/1 
f 4/4/4 6/6/6 12/12/12 
f 12/12/12 21/48/37 4/4/4 
f 17/18/17 14/20/19 18/49/38 
f 26/35/27 17/18/17 18/49/38 
f 18/49/38 19/50/39 26/35/27 
f 26/35/27 19/50/39 20/51/40 
f 22/52/41 29/44/34 26/35/27 
f 26/35/27 20/51/40 22/52/41 
f 29/53/42 22/28/42 21/27/42 
f 21/27/42 12/54/42 29/53/42 
f 30/55/43 17/18/17 28/43/32 
f 13/56/44 30/57/44 28/40/29 
f 28/40/29 7/41/29 13/56/44 
f 16/58/45 3/3/3 2/2/2 
# 52 faces

