# 3ds Max Wavefront OBJ Exporter v0.99 - (c)2007 guruware
# File Created: 19.11.2021 13:22:45

mtllib BarraIzqLarga.mtl

#
# object BarraIzqLarga
#

v  -107.2410 -8.6773 114.3721
v  -107.1811 -8.7194 114.3548
v  -107.1936 -8.7581 114.3582
v  -107.2418 -8.7605 114.3720
v  -107.5967 -8.7605 114.4738
v  -107.5966 -8.6773 114.4741
v  -107.5777 -8.6926 114.4686
v  -107.5783 -8.7452 114.4686
v  -107.6563 -8.7452 114.4909
v  -107.6567 -8.6926 114.4913
v  -107.6376 -8.6773 114.4859
v  -107.6387 -8.7605 114.4858
v  -107.9499 -8.7452 114.5751
v  -107.9498 -8.6926 114.5753
v  -107.9702 -8.6773 114.5812
v  -107.9703 -8.7605 114.5809
v  -107.1935 -8.6802 114.3585
v  -107.2376 -8.6773 114.3910
v  -107.2578 -8.6926 114.3969
v  -107.2577 -8.7452 114.3971
v  -107.2382 -8.7605 114.3916
v  -107.5932 -8.7605 114.4934
v  -107.5932 -8.6773 114.4930
v  -107.6343 -8.6773 114.5047
v  -107.6352 -8.7605 114.5055
v  -107.6533 -8.6926 114.5103
v  -107.6525 -8.7447 114.5120
v  -107.9464 -8.6926 114.5943
v  -108.0145 -8.7581 114.5936
v  -107.9668 -8.7605 114.6005
v  -108.0109 -8.7581 114.6132
v  -107.1901 -8.6802 114.3774
v  -107.1901 -8.7581 114.3778
v  -107.5748 -8.7452 114.4881
v  -107.2612 -8.7452 114.3776
v  -107.6528 -8.7452 114.5104
v  -107.9464 -8.7452 114.5946
v  -108.0144 -8.6802 114.5939
v  -108.0110 -8.6802 114.6128
v  -107.9668 -8.6773 114.6001
v  -107.5743 -8.6926 114.4876
v  -107.2612 -8.6926 114.3779
v  -108.0250 -8.7194 114.5968
v  -108.0216 -8.7194 114.6160
v  -107.1777 -8.7194 114.3740
# 45 vertices

vn -0.1762 0.0034 -0.9843
vn -0.1763 0.0035 -0.9843
vn -0.1762 0.0035 -0.9843
vn -0.1763 0.0034 -0.9843
vn -0.1761 0.0034 -0.9844
vn 0.1762 0.0048 0.9843
vn 0.1762 0.0049 0.9843
vn 0.1814 0.0067 0.9828
vn 0.1773 0.0175 0.9839
vn 0.1775 0.0175 0.9838
vn 0.0000 1.0000 -0.0000
vn -0.0418 -0.9991 0.0120
vn 0.0472 0.9988 -0.0135
vn 0.0384 -0.9992 -0.0110
vn 0.0000 -1.0000 -0.0000
vn 0.5342 -0.8314 -0.1532
vn -0.5472 -0.8204 0.1704
vn -0.5495 -0.8205 0.1576
vn -0.5495 -0.8205 0.1580
vn -0.4734 -0.7833 0.4420
vn 0.0025 -0.9999 0.0140
vn 0.0623 -0.9355 0.3479
vn 0.4954 -0.8570 -0.1421
vn -0.0507 0.9986 0.0145
vn -0.5202 0.8409 0.1492
vn 0.5230 0.8390 -0.1500
vn -0.4994 0.8545 0.1432
vn -0.5120 -0.8463 0.1468
vn 0.4961 0.8565 -0.1423
vn -0.1761 0.0035 -0.9844
vn 0.1745 0.0164 0.9847
vn 0.1762 0.0050 0.9843
vn -0.9105 0.3206 0.2611
vn 0.8940 0.3676 -0.2563
vn -0.9093 -0.3244 0.2607
vn 0.8921 -0.3724 -0.2558
# 36 vertex normals

vt 0.9333 0.2287 0.0000
vt 0.9248 0.2136 0.0000
vt 0.9170 0.2168 0.0000
vt 0.9165 0.2289 0.0000
vt 0.9165 0.3183 0.0000
vt 0.9333 0.3183 0.0000
vt 0.9302 0.3135 0.0000
vt 0.9196 0.3136 0.0000
vt 0.9196 0.3333 0.0000
vt 0.9302 0.3334 0.0000
vt 0.9333 0.3286 0.0000
vt 0.9165 0.3288 0.0000
vt 0.9196 0.4072 0.0000
vt 0.9302 0.4072 0.0000
vt 0.9333 0.4123 0.0000
vt 0.9165 0.4123 0.0000
vt 0.9327 0.2168 0.0000
vt 0.9232 0.1993 0.0000
vt 0.9201 0.1943 0.0000
vt 0.9095 0.1943 0.0000
vt 0.9065 0.1992 0.0000
vt 0.9064 0.1098 0.0000
vt 0.9232 0.1098 0.0000
vt 0.9232 0.0995 0.0000
vt 0.9064 0.0992 0.0000
vt 0.9201 0.0947 0.0000
vt 0.9096 0.0948 0.0000
vt 0.9974 0.1012 0.0000
vt 1.0008 0.1012 0.0000
vt 1.0008 0.0274 0.0000
vt 0.9974 0.0274 0.0000
vt 0.9923 0.2025 0.0000
vt 0.9923 0.2137 0.0000
vt 0.9959 0.2136 0.0000
vt 0.9959 0.2024 0.0000
vt 1.0008 0.2205 0.0000
vt 1.0008 0.2086 0.0000
vt 0.9974 0.2086 0.0000
vt 0.9974 0.2205 0.0000
vt 0.9923 0.4129 0.0000
vt 0.9959 0.4129 0.0000
vt 0.9959 0.4008 0.0000
vt 0.9923 0.4007 0.0000
vt 0.9959 0.3151 0.0000
vt 0.9923 0.3151 0.0000
vt 0.9923 0.3949 0.0000
vt 0.9959 0.3950 0.0000
vt 0.9959 0.3096 0.0000
vt 0.9923 0.3095 0.0000
vt 0.9956 0.2935 0.0000
vt 0.9923 0.2936 0.0000
vt 0.9923 0.2989 0.0000
vt 0.9959 0.2990 0.0000
vt 0.9959 0.2935 0.0000
vt 0.9959 0.2196 0.0000
vt 0.9923 0.2196 0.0000
vt 1.0008 0.0103 0.0000
vt 0.9974 0.0103 0.0000
vt 0.9974 0.0214 0.0000
vt 1.0008 0.0214 0.0000
vt 0.9974 0.1069 0.0000
vt 1.0008 0.1069 0.0000
vt 0.9974 0.1229 0.0000
vt 1.0008 0.1229 0.0000
vt 1.0008 0.1173 0.0000
vt 0.9974 0.1173 0.0000
vt 0.9974 0.2026 0.0000
vt 1.0008 0.2026 0.0000
vt 0.9196 0.2338 0.0000
vt 0.9302 0.2338 0.0000
vt 0.9248 0.4261 0.0000
vt 0.9327 0.4234 0.0000
vt 0.9201 0.1146 0.0000
vt 0.9095 0.1144 0.0000
vt 0.9232 0.0158 0.0000
vt 0.9065 0.0157 0.0000
vt 0.9095 0.0209 0.0000
vt 0.9201 0.0209 0.0000
vt 0.9147 0.0020 0.0000
vt 0.9226 0.0046 0.0000
vt 0.9147 0.2144 0.0000
vt 0.9226 0.2113 0.0000
vt 1.0008 0.0020 0.0000
vt 0.9974 0.0020 0.0000
vt 0.9974 0.2290 0.0000
vt 1.0008 0.2290 0.0000
vt 0.9170 0.4234 0.0000
vt 0.9069 0.0046 0.0000
vt 0.9069 0.2113 0.0000
vt 0.9959 0.1942 0.0000
vt 0.9923 0.1943 0.0000
vt 0.9923 0.4213 0.0000
vt 0.9959 0.4213 0.0000
# 93 texture coords

o BarraIzqLarga
g BarraIzqLarga
usemtl Tren_01___Default
s off
f 1/1/1 2/2/2 3/3/2 
f 3/3/2 4/4/3 1/1/1 
f 5/5/4 6/6/4 7/7/1 
f 7/7/1 8/8/1 5/5/4 
f 9/9/1 10/10/1 11/11/5 
f 11/11/5 12/12/5 9/9/1 
f 13/13/1 14/14/1 10/10/1 
f 10/10/1 9/9/1 13/13/1 
f 15/15/1 14/14/1 13/13/1 
f 13/13/1 16/16/3 15/15/1 
f 1/1/1 17/17/4 2/2/2 
f 18/18/6 19/19/7 20/20/7 
f 20/20/7 21/21/6 18/18/6 
f 22/22/7 23/23/7 24/24/8 
f 24/24/8 25/25/8 22/22/7 
f 25/25/8 24/24/8 26/26/9 
f 26/26/9 27/27/10 25/25/8 
f 26/28/11 10/29/11 14/30/11 
f 14/30/11 28/31/11 26/28/11 
f 29/32/12 16/33/12 30/34/12 
f 30/34/12 31/35/12 29/32/12 
f 17/36/13 1/37/13 18/38/13 
f 18/38/13 32/39/13 17/36/13 
f 3/40/14 33/41/14 21/42/14 
f 21/42/14 4/43/14 3/40/14 
f 34/44/15 8/45/15 35/46/15 
f 35/46/15 20/47/15 34/44/15 
f 22/48/16 5/49/16 8/45/16 
f 8/45/16 34/44/16 22/48/16 
f 36/50/17 9/51/18 12/52/18 
f 12/52/18 25/53/19 36/50/17 
f 27/54/20 36/50/17 25/53/19 
f 37/55/15 36/50/21 27/54/22 
f 30/34/23 16/33/23 13/56/23 
f 13/56/23 37/55/23 30/34/23 
f 38/57/24 39/58/24 40/59/24 
f 40/59/24 15/60/24 38/57/24 
f 24/61/25 11/62/25 10/29/25 
f 10/29/25 26/28/25 24/61/25 
f 41/63/26 7/64/26 6/65/26 
f 6/65/26 23/66/26 41/63/26 
f 19/67/11 42/68/11 7/64/11 
f 7/64/11 41/63/11 19/67/11 
f 18/38/27 1/37/27 42/68/27 
f 42/68/27 19/67/27 18/38/27 
f 35/46/28 4/43/28 21/42/28 
f 21/42/28 20/47/28 35/46/28 
f 9/51/15 36/50/21 37/55/15 
f 37/55/15 13/56/15 9/51/15 
f 14/30/29 15/60/29 40/59/29 
f 40/59/29 28/31/29 14/30/29 
f 1/1/1 4/4/3 35/69/1 
f 35/69/1 42/70/1 1/1/1 
f 42/70/1 35/69/1 8/8/1 
f 8/8/1 7/7/1 42/70/1 
f 5/5/4 12/12/5 11/11/5 
f 11/11/5 6/6/4 5/5/4 
f 15/15/1 43/71/30 38/72/5 
f 41/73/7 34/74/7 20/20/7 
f 20/20/7 19/19/7 41/73/7 
f 22/22/7 34/74/7 41/73/7 
f 41/73/7 23/23/7 22/22/7 
f 40/75/6 30/76/6 37/77/31 
f 37/77/31 28/78/31 40/75/6 
f 44/79/6 40/75/6 39/80/32 
f 18/18/6 45/81/6 32/82/32 
f 39/58/33 38/57/33 43/83/33 
f 43/83/33 44/84/33 39/58/33 
f 45/85/34 2/86/34 17/36/34 
f 17/36/34 32/39/34 45/85/34 
f 16/16/3 29/87/30 43/71/30 
f 43/71/30 15/15/1 16/16/3 
f 31/88/6 30/76/6 40/75/6 
f 40/75/6 44/79/6 31/88/6 
f 21/21/6 33/89/6 45/81/6 
f 45/81/6 18/18/6 21/21/6 
f 44/90/35 43/91/35 29/32/35 
f 29/32/35 31/35/35 44/90/35 
f 33/41/36 3/40/36 2/92/36 
f 2/92/36 45/93/36 33/41/36 
f 26/26/9 28/78/31 37/77/31 
f 37/77/31 27/27/10 26/26/9 
f 12/52/15 5/49/15 22/48/15 
f 22/48/15 25/53/15 12/52/15 
f 6/65/11 11/62/11 24/61/11 
f 24/61/11 23/66/11 6/65/11 
# 86 faces

