# 3ds Max Wavefront OBJ Exporter v0.99 - (c)2007 guruware
# File Created: 19.11.2021 13:17:57

mtllib LlantaIzq1.mtl

#
# object LlantaIzq1
#

v  -108.7449 -8.8721 114.8759
v  -108.7368 -8.8212 114.8735
v  -108.7402 -8.8212 114.8544
v  -108.7484 -8.8721 114.8568
v  -108.7134 -8.7780 114.8668
v  -108.7169 -8.7780 114.8477
v  -108.6784 -8.7491 114.8568
v  -108.6819 -8.7491 114.8376
v  -108.6372 -8.7390 114.8449
v  -108.6406 -8.7390 114.8258
v  -108.5959 -8.7491 114.8330
v  -108.5994 -8.7491 114.8139
v  -108.5610 -8.7780 114.8230
v  -108.5645 -8.7780 114.8039
v  -108.5377 -8.8212 114.8163
v  -108.5411 -8.8212 114.7971
v  -108.5294 -8.8721 114.8139
v  -108.5328 -8.8721 114.7948
v  -108.5377 -8.9231 114.8163
v  -108.5411 -8.9231 114.7971
v  -108.5610 -8.9662 114.8230
v  -108.5645 -8.9662 114.8039
v  -108.5959 -8.9951 114.8330
v  -108.5994 -8.9951 114.8139
v  -108.6372 -9.0053 114.8449
v  -108.6406 -9.0053 114.8258
v  -108.6784 -8.9951 114.8568
v  -108.6819 -8.9951 114.8376
v  -108.7134 -8.9662 114.8668
v  -108.7169 -8.9662 114.8477
v  -108.7368 -8.9231 114.8735
v  -108.7402 -8.9231 114.8544
v  -108.7456 -8.8721 114.8306
v  -108.7379 -8.8240 114.8284
v  -108.6453 -8.8721 114.7996
v  -108.7161 -8.7832 114.8221
v  -108.6835 -8.7560 114.8128
v  -108.6449 -8.7464 114.8017
v  -108.6065 -8.7560 114.7907
v  -108.5738 -8.7832 114.7813
v  -108.5520 -8.8240 114.7751
v  -108.5443 -8.8721 114.7729
v  -108.5520 -8.9202 114.7751
v  -108.5738 -8.9609 114.7813
v  -108.6065 -8.9882 114.7907
v  -108.6449 -8.9978 114.8017
v  -108.6835 -8.9882 114.8128
v  -108.7161 -8.9609 114.8221
v  -108.7379 -8.9202 114.8284
v  -108.7426 -8.8721 114.8528
v  -108.7349 -8.8236 114.8506
v  -108.7129 -8.7825 114.8443
v  -108.6799 -8.7550 114.8348
v  -108.6410 -8.7454 114.8236
v  -108.6021 -8.7550 114.8125
v  -108.5692 -8.7825 114.8030
v  -108.5471 -8.8236 114.7967
v  -108.5394 -8.8721 114.7945
v  -108.5471 -8.9206 114.7967
v  -108.5692 -8.9617 114.8030
v  -108.6021 -8.9892 114.8125
v  -108.6410 -8.9988 114.8236
v  -108.6799 -8.9892 114.8348
v  -108.7129 -8.9617 114.8443
v  -108.7349 -8.9206 114.8506
v  -108.7416 -8.8721 114.8766
v  -108.7336 -8.8224 114.8743
v  -108.7109 -8.7802 114.8678
v  -108.6770 -8.7520 114.8581
v  -108.6369 -8.7422 114.8466
v  -108.5969 -8.7520 114.8351
v  -108.5629 -8.7802 114.8254
v  -108.5402 -8.8224 114.8189
v  -108.5322 -8.8721 114.8166
v  -108.5402 -8.9218 114.8189
v  -108.5629 -8.9640 114.8254
v  -108.5969 -8.9922 114.8351
v  -108.6369 -9.0020 114.8466
v  -108.6770 -8.9922 114.8581
v  -108.7109 -8.9640 114.8678
v  -108.7336 -8.9218 114.8743
v  -108.6369 -8.8721 114.8466
# 82 vertices

vn -0.9613 0.0000 0.2756
vn -0.8868 0.3859 0.2543
vn -0.8868 0.3860 0.2543
vn -0.6758 0.7112 0.1938
vn -0.3643 0.9254 0.1045
vn -0.3642 0.9254 0.1044
vn -0.0001 1.0000 0.0000
vn 0.0001 1.0000 -0.0000
vn 0.3646 0.9253 -0.1045
vn 0.3647 0.9252 -0.1046
vn 0.6762 0.7107 -0.1939
vn 0.6763 0.7106 -0.1939
vn 0.8864 0.3870 -0.2542
vn 0.8864 0.3869 -0.2542
vn 0.9613 0.0000 -0.2756
vn 0.8863 -0.3871 -0.2541
vn 0.8864 -0.3870 -0.2542
vn 0.6762 -0.7107 -0.1939
vn 0.6763 -0.7106 -0.1939
vn 0.3649 -0.9252 -0.1046
vn 0.3650 -0.9251 -0.1047
vn -0.0001 -1.0000 0.0000
vn 0.0001 -1.0000 -0.0000
vn -0.3646 -0.9253 0.1045
vn -0.3645 -0.9253 0.1045
vn -0.6758 -0.7112 0.1938
vn -0.8868 -0.3860 0.2543
vn -0.8867 -0.3861 0.2543
vn -0.1906 0.0000 -0.9801
vn -0.1895 0.0058 -0.9804
vn -0.1762 0.0000 -0.9844
vn -0.1864 0.0106 -0.9813
vn -0.1818 0.0139 -0.9826
vn -0.1762 0.0150 -0.9842
vn -0.1706 0.0139 -0.9858
vn -0.1660 0.0106 -0.9872
vn -0.1628 0.0058 -0.9881
vn -0.1617 0.0000 -0.9884
vn -0.1628 -0.0058 -0.9881
vn -0.1660 -0.0106 -0.9872
vn -0.1706 -0.0139 -0.9858
vn -0.1762 -0.0151 -0.9842
vn -0.1818 -0.0139 -0.9826
vn -0.1864 -0.0106 -0.9813
vn -0.1895 -0.0058 -0.9804
vn -0.9705 0.0000 0.2123
vn -0.8976 0.3817 0.1912
vn -0.8973 0.3825 0.1911
vn -0.6897 0.7053 0.1341
vn -0.6884 0.7067 0.1337
vn -0.3772 0.9224 0.0493
vn -0.3765 0.9227 0.0491
vn -0.0097 0.9985 -0.0540
vn 0.3575 0.9224 -0.1605
vn 0.3568 0.9227 -0.1603
vn 0.6681 0.7058 -0.2529
vn 0.6675 0.7064 -0.2528
vn 0.8750 0.3817 -0.3173
vn 0.8747 0.3825 -0.3173
vn 0.9473 0.0000 -0.3409
vn 0.8750 -0.3818 -0.3173
vn 0.8747 -0.3826 -0.3172
vn 0.6683 -0.7057 -0.2527
vn 0.6677 -0.7063 -0.2525
vn 0.3578 -0.9223 -0.1602
vn 0.3569 -0.9227 -0.1600
vn -0.0097 -0.9985 -0.0540
vn -0.3774 -0.9223 0.0496
vn -0.3765 -0.9227 0.0494
vn -0.6897 -0.7053 0.1344
vn -0.6885 -0.7066 0.1341
vn -0.8976 -0.3818 0.1911
vn -0.8973 -0.3826 0.1911
vn -0.1673 0.0000 1.0189
vn 0.1511 0.0000 0.9912
vn 0.1529 0.0103 0.9907
vn -0.1501 0.1339 1.0109
vn 0.1583 0.0193 0.9891
vn -0.0951 0.2646 0.9857
vn 0.1663 0.0254 0.9868
vn 0.0107 0.3749 0.9426
vn 0.1762 0.0280 0.9839
vn 0.1608 0.4220 0.8921
vn 0.1863 0.0263 0.9810
vn 0.3182 0.3849 0.8486
vn 0.1954 0.0205 0.9784
vn 0.4393 0.2845 0.8198
vn 0.2017 0.0113 0.9766
vn 0.5106 0.1479 0.8059
vn 0.2040 0.0000 0.9759
vn 0.5321 0.0000 0.8028
vn 0.2017 -0.0113 0.9766
vn 0.5106 -0.1479 0.8059
vn 0.1954 -0.0205 0.9784
vn 0.4393 -0.2845 0.8198
vn 0.1863 -0.0263 0.9810
vn 0.3181 -0.3841 0.8490
vn 0.1762 -0.0280 0.9839
vn 0.1609 -0.4204 0.8928
vn 0.1663 -0.0255 0.9868
vn 0.0109 -0.3741 0.9429
vn 0.1583 -0.0193 0.9891
vn -0.0951 -0.2646 0.9857
vn 0.1529 -0.0103 0.9907
vn -0.1500 -0.1339 1.0110
vn -0.4097 0.0000 -0.8849
vn -0.3962 0.0949 -0.8875
vn -0.3950 0.0987 -0.8878
vn -0.3949 -0.0986 -0.8879
vn -0.3960 -0.0949 -0.8876
vn -0.3483 -0.1898 -0.8979
vn -0.3519 -0.1850 -0.8971
vn -0.2696 -0.2562 -0.9172
vn -0.2732 -0.2543 -0.9163
vn -0.1699 -0.2783 -0.9453
vn -0.0739 -0.2491 -0.9757
vn -0.0697 -0.2465 -0.9772
vn -0.0021 -0.1805 -1.0010
vn 0.0010 -0.1758 -1.0022
vn 0.0375 -0.0927 -1.0164
vn 0.0384 -0.0892 -1.0168
vn 0.0493 0.0000 -1.0213
vn 0.0377 0.0929 -1.0164
vn 0.0386 0.0891 -1.0168
vn -0.0018 0.1807 -1.0010
vn 0.0013 0.1760 -1.0022
vn -0.0738 0.2497 -0.9756
vn -0.0695 0.2470 -0.9771
vn -0.1699 0.2789 -0.9451
vn -0.2697 0.2567 -0.9170
vn -0.2733 0.2548 -0.9161
vn -0.3486 0.1900 -0.8977
vn -0.3521 0.1852 -0.8969
vn 0.1762 0.0000 0.9844
# 134 vertex normals

vt 0.9679 0.1965 0.0000
vt 0.9679 0.2066 0.0000
vt 0.9713 0.2066 0.0000
vt 0.9713 0.1965 0.0000
vt 0.9679 0.2168 0.0000
vt 0.9713 0.2168 0.0000
vt 0.9679 0.2270 0.0000
vt 0.9713 0.2270 0.0000
vt 0.9679 0.2373 0.0000
vt 0.9713 0.2373 0.0000
vt 0.9679 0.2476 0.0000
vt 0.9713 0.2476 0.0000
vt 0.9679 0.2579 0.0000
vt 0.9713 0.2579 0.0000
vt 0.9679 0.2680 0.0000
vt 0.9713 0.2680 0.0000
vt 0.9679 0.2782 0.0000
vt 0.9713 0.2782 0.0000
vt 0.9679 0.2883 0.0000
vt 0.9713 0.2883 0.0000
vt 0.9679 0.2985 0.0000
vt 0.9713 0.2985 0.0000
vt 0.9679 0.3088 0.0000
vt 0.9713 0.3087 0.0000
vt 0.9679 0.3192 0.0000
vt 0.9713 0.3192 0.0000
vt 0.9679 0.1554 0.0000
vt 0.9679 0.1659 0.0000
vt 0.9713 0.1659 0.0000
vt 0.9713 0.1555 0.0000
vt 0.9679 0.1762 0.0000
vt 0.9713 0.1762 0.0000
vt 0.9679 0.1863 0.0000
vt 0.9713 0.1863 0.0000
vt 0.8862 0.5215 0.0000
vt 0.8899 0.5307 0.0000
vt 0.9111 0.5168 0.0000
vt 0.8969 0.5377 0.0000
vt 0.9060 0.5416 0.0000
vt 0.9159 0.5417 0.0000
vt 0.9250 0.5380 0.0000
vt 0.9321 0.5310 0.0000
vt 0.9359 0.5219 0.0000
vt 0.9360 0.5120 0.0000
vt 0.9323 0.5029 0.0000
vt 0.9253 0.4958 0.0000
vt 0.9162 0.4920 0.0000
vt 0.9063 0.4919 0.0000
vt 0.8972 0.4956 0.0000
vt 0.8901 0.5026 0.0000
vt 0.8863 0.5117 0.0000
vt 0.9728 0.1965 0.0000
vt 0.9728 0.2067 0.0000
vt 0.9767 0.2067 0.0000
vt 0.9767 0.1965 0.0000
vt 0.9728 0.2169 0.0000
vt 0.9767 0.2170 0.0000
vt 0.9728 0.2271 0.0000
vt 0.9767 0.2272 0.0000
vt 0.9728 0.2373 0.0000
vt 0.9767 0.2373 0.0000
vt 0.9728 0.2475 0.0000
vt 0.9767 0.2475 0.0000
vt 0.9728 0.2577 0.0000
vt 0.9767 0.2577 0.0000
vt 0.9728 0.2679 0.0000
vt 0.9767 0.2679 0.0000
vt 0.9728 0.2782 0.0000
vt 0.9767 0.2782 0.0000
vt 0.9728 0.2884 0.0000
vt 0.9767 0.2884 0.0000
vt 0.9728 0.2986 0.0000
vt 0.9767 0.2986 0.0000
vt 0.9728 0.3088 0.0000
vt 0.9767 0.3088 0.0000
vt 0.9728 0.3189 0.0000
vt 0.9767 0.3188 0.0000
vt 0.9728 0.1557 0.0000
vt 0.9728 0.1658 0.0000
vt 0.9767 0.1659 0.0000
vt 0.9767 0.1558 0.0000
vt 0.9728 0.1760 0.0000
vt 0.9767 0.1760 0.0000
vt 0.9728 0.1863 0.0000
vt 0.9767 0.1862 0.0000
vt 0.9671 0.1965 0.0000
vt 0.9671 0.2067 0.0000
vt 0.9671 0.2169 0.0000
vt 0.9672 0.2271 0.0000
vt 0.9672 0.2373 0.0000
vt 0.9672 0.2476 0.0000
vt 0.9671 0.2578 0.0000
vt 0.9671 0.2680 0.0000
vt 0.9671 0.2782 0.0000
vt 0.9671 0.2884 0.0000
vt 0.9671 0.2986 0.0000
vt 0.9672 0.3088 0.0000
vt 0.9672 0.3191 0.0000
vt 0.9672 0.1556 0.0000
vt 0.9672 0.1659 0.0000
vt 0.9671 0.1761 0.0000
vt 0.9671 0.1863 0.0000
vt 0.9175 0.7960 0.0000
vt 0.9074 0.8204 0.0000
vt 0.9175 0.8224 0.0000
vt 0.8989 0.8147 0.0000
vt 0.8933 0.8061 0.0000
vt 0.8913 0.7960 0.0000
vt 0.8933 0.7859 0.0000
vt 0.8989 0.7774 0.0000
vt 0.9074 0.7717 0.0000
vt 0.9175 0.7697 0.0000
vt 0.9275 0.7717 0.0000
vt 0.9360 0.7774 0.0000
vt 0.9417 0.7859 0.0000
vt 0.9437 0.7960 0.0000
vt 0.9417 0.8061 0.0000
vt 0.9360 0.8147 0.0000
vt 0.9275 0.8204 0.0000
# 119 texture coords

o LlantaIzq1
g LlantaIzq1
usemtl Tren_02___Default
s off
f 1/1/1 2/2/2 3/3/3 
f 3/3/3 4/4/1 1/1/1 
f 2/2/2 5/5/4 6/6/4 
f 6/6/4 3/3/3 2/2/2 
f 5/5/4 7/7/5 8/8/6 
f 8/8/6 6/6/4 5/5/4 
f 7/7/5 9/9/7 10/10/8 
f 10/10/8 8/8/6 7/7/5 
f 9/9/7 11/11/9 12/12/10 
f 12/12/10 10/10/8 9/9/7 
f 11/11/9 13/13/11 14/14/12 
f 14/14/12 12/12/10 11/11/9 
f 13/13/11 15/15/13 16/16/14 
f 16/16/14 14/14/12 13/13/11 
f 15/15/13 17/17/15 18/18/15 
f 18/18/15 16/16/14 15/15/13 
f 17/17/15 19/19/16 20/20/17 
f 20/20/17 18/18/15 17/17/15 
f 19/19/16 21/21/18 22/22/19 
f 22/22/19 20/20/17 19/19/16 
f 21/21/18 23/23/20 24/24/21 
f 24/24/21 22/22/19 21/21/18 
f 23/23/20 25/25/22 26/26/23 
f 26/26/23 24/24/21 23/23/20 
f 25/27/22 27/28/24 28/29/25 
f 28/29/25 26/30/23 25/27/22 
f 27/28/24 29/31/26 30/32/26 
f 30/32/26 28/29/25 27/28/24 
f 29/31/26 31/33/27 32/34/28 
f 32/34/28 30/32/26 29/31/26 
f 31/33/27 1/1/1 4/4/1 
f 4/4/1 32/34/28 31/33/27 
f 33/35/29 34/36/30 35/37/31 
f 34/36/30 36/38/32 35/37/31 
f 36/38/32 37/39/33 35/37/31 
f 37/39/33 38/40/34 35/37/31 
f 38/40/34 39/41/35 35/37/31 
f 39/41/35 40/42/36 35/37/31 
f 40/42/36 41/43/37 35/37/31 
f 41/43/37 42/44/38 35/37/31 
f 42/44/38 43/45/39 35/37/31 
f 43/45/39 44/46/40 35/37/31 
f 44/46/40 45/47/41 35/37/31 
f 45/47/41 46/48/42 35/37/31 
f 46/48/42 47/49/43 35/37/31 
f 47/49/43 48/50/44 35/37/31 
f 48/50/44 49/51/45 35/37/31 
f 49/51/45 33/35/29 35/37/31 
f 50/52/46 51/53/47 34/54/48 
f 34/54/48 33/55/46 50/52/46 
f 51/53/47 52/56/49 36/57/50 
f 36/57/50 34/54/48 51/53/47 
f 52/56/49 53/58/51 37/59/52 
f 37/59/52 36/57/50 52/56/49 
f 53/58/51 54/60/53 38/61/53 
f 38/61/53 37/59/52 53/58/51 
f 54/60/53 55/62/54 39/63/55 
f 39/63/55 38/61/53 54/60/53 
f 55/62/54 56/64/56 40/65/57 
f 40/65/57 39/63/55 55/62/54 
f 56/64/56 57/66/58 41/67/59 
f 41/67/59 40/65/57 56/64/56 
f 57/66/58 58/68/60 42/69/60 
f 42/69/60 41/67/59 57/66/58 
f 58/68/60 59/70/61 43/71/62 
f 43/71/62 42/69/60 58/68/60 
f 59/70/61 60/72/63 44/73/64 
f 44/73/64 43/71/62 59/70/61 
f 60/72/63 61/74/65 45/75/66 
f 45/75/66 44/73/64 60/72/63 
f 61/74/65 62/76/67 46/77/67 
f 46/77/67 45/75/66 61/74/65 
f 62/78/67 63/79/68 47/80/69 
f 47/80/69 46/81/67 62/78/67 
f 63/79/68 64/82/70 48/83/71 
f 48/83/71 47/80/69 63/79/68 
f 64/82/70 65/84/72 49/85/73 
f 49/85/73 48/83/71 64/82/70 
f 65/84/72 50/52/46 33/55/46 
f 33/55/46 49/85/73 65/84/72 
f 1/1/74 66/86/75 67/87/76 
f 67/87/76 2/2/77 1/1/74 
f 2/2/77 67/87/76 68/88/78 
f 68/88/78 5/5/79 2/2/77 
f 5/5/79 68/88/78 69/89/80 
f 69/89/80 7/7/81 5/5/79 
f 7/7/81 69/89/80 70/90/82 
f 70/90/82 9/9/83 7/7/81 
f 9/9/83 70/90/82 71/91/84 
f 71/91/84 11/11/85 9/9/83 
f 11/11/85 71/91/84 72/92/86 
f 72/92/86 13/13/87 11/11/85 
f 13/13/87 72/92/86 73/93/88 
f 73/93/88 15/15/89 13/13/87 
f 15/15/89 73/93/88 74/94/90 
f 74/94/90 17/17/91 15/15/89 
f 17/17/91 74/94/90 75/95/92 
f 75/95/92 19/19/93 17/17/91 
f 19/19/93 75/95/92 76/96/94 
f 76/96/94 21/21/95 19/19/93 
f 21/21/95 76/96/94 77/97/96 
f 77/97/96 23/23/97 21/21/95 
f 23/23/97 77/97/96 78/98/98 
f 78/98/98 25/25/99 23/23/97 
f 25/27/99 78/99/98 79/100/100 
f 79/100/100 27/28/101 25/27/99 
f 27/28/101 79/100/100 80/101/102 
f 80/101/102 29/31/103 27/28/101 
f 29/31/103 80/101/102 81/102/104 
f 81/102/104 31/33/105 29/31/103 
f 31/33/105 81/102/104 66/86/75 
f 66/86/75 1/1/74 31/33/105 
f 50/52/106 4/4/106 3/3/107 
f 3/3/107 51/53/108 50/52/106 
f 65/84/109 32/34/110 4/4/106 
f 4/4/106 50/52/106 65/84/109 
f 64/82/111 30/32/112 32/34/110 
f 32/34/110 65/84/109 64/82/111 
f 63/79/113 28/29/114 30/32/112 
f 30/32/112 64/82/111 63/79/113 
f 62/78/115 26/30/115 28/29/114 
f 28/29/114 63/79/113 62/78/115 
f 61/74/116 24/24/117 26/26/115 
f 26/26/115 62/76/115 61/74/116 
f 60/72/118 22/22/119 24/24/117 
f 24/24/117 61/74/116 60/72/118 
f 59/70/120 20/20/121 22/22/119 
f 22/22/119 60/72/118 59/70/120 
f 58/68/122 18/18/122 20/20/121 
f 20/20/121 59/70/120 58/68/122 
f 57/66/123 16/16/124 18/18/122 
f 18/18/122 58/68/122 57/66/123 
f 56/64/125 14/14/126 16/16/124 
f 16/16/124 57/66/123 56/64/125 
f 55/62/127 12/12/128 14/14/126 
f 14/14/126 56/64/125 55/62/127 
f 54/60/129 10/10/129 12/12/128 
f 12/12/128 55/62/127 54/60/129 
f 53/58/130 8/8/131 10/10/129 
f 10/10/129 54/60/129 53/58/130 
f 52/56/132 6/6/133 8/8/131 
f 8/8/131 53/58/130 52/56/132 
f 51/53/108 3/3/107 6/6/133 
f 6/6/133 52/56/132 51/53/108 
f 82/103/134 67/104/76 66/105/75 
f 82/103/134 68/106/78 67/104/76 
f 82/103/134 69/107/80 68/106/78 
f 82/103/134 70/108/82 69/107/80 
f 82/103/134 71/109/84 70/108/82 
f 82/103/134 72/110/86 71/109/84 
f 82/103/134 73/111/88 72/110/86 
f 82/103/134 74/112/90 73/111/88 
f 82/103/134 75/113/92 74/112/90 
f 82/103/134 76/114/94 75/113/92 
f 82/103/134 77/115/96 76/114/94 
f 82/103/134 78/116/98 77/115/96 
f 82/103/134 79/117/100 78/116/98 
f 82/103/134 80/118/102 79/117/100 
f 82/103/134 81/119/104 80/118/102 
f 82/103/134 66/105/75 81/119/104 
# 160 faces

